<?xml version="1.0" encoding="utf-8"?>
<svg version="1.1" xmlns="http://www.w3.org/2000/svg" xmlns:xlink="http://www.w3.org/1999/xlink" x="0px" y="0px"
	 viewBox="0 0 1200 1200" style="enable-background:new 0 0 1200 1200;" xml:space="preserve">
<g id="badges">
	<g>
		<g>
			
				<linearGradient id="SVGID_00000124133107550880666110000002077339866112769419_" gradientUnits="userSpaceOnUse" x1="722.0676" y1="672.3914" x2="867.2433" y2="789.24">
				<stop  offset="0" style="stop-color:#551dbf"/>
				<stop  offset="1" style="stop-color:#551dbf"/>
			</linearGradient>
			<path style="fill:url(#SVGID_00000124133107550880666110000002077339866112769419_);" d="M946.469,584.177
				c-40.141,26.97-66.903,66.548-95.082,103.808c-28.179,37.26-60.69,74.565-106.502,92.818
				c-49.071,19.551-106.499,14.419-156.617,31.689c-34.278,11.812-62.318,32.957-88.873,56.164
				c26.867,6.064,53.735,12.128,80.602,18.191c68.221,15.397,139.578,30.849,208.07,16.461
				c93.315-19.602,163.034-91.48,205.851-168.855c30.267-54.696,50.007-116.058,52.058-176.844
				C1011.828,554.03,974.691,565.215,946.469,584.177z"/>
			
				<linearGradient id="SVGID_00000125573183433183909990000000041188940477066683_" gradientUnits="userSpaceOnUse" x1="569.9904" y1="445.4825" x2="660.557" y2="710.7126">
				<stop  offset="0" style="stop-color:#551dbf"/>
				<stop  offset="1" style="stop-color:#551dbf"/>
			</linearGradient>
			<path style="fill:url(#SVGID_00000125573183433183909990000000041188940477066683_);" d="M917.582,490.699
				c-48.766,25.458-87.099,63.92-127.68,99.127c-40.581,35.207-86.392,68.706-141.368,79.982
				c-98.17,20.134-193.681-34.271-290.864-57.965c-61.901-15.092-127.431-17.097-190.555-6.99
				c9.757,28.626,23.441,56.162,36.065,84.672c18.932,42.753,24.885,84.439,69.965,113.188
				c35.645,22.732,79.07,32.727,121.409,42.283c34.947,7.887,69.895,15.774,104.841,23.661
				c26.555-23.207,54.596-44.353,88.873-56.164c50.119-17.27,107.546-12.138,156.617-31.689
				c45.812-18.253,78.323-55.558,106.502-92.818c28.179-37.26,54.941-76.838,95.082-103.808
				c28.221-18.962,65.358-30.147,99.507-26.568c1.041-30.86-2.516-61.563-11.537-91.177
				C995.001,461.89,952.615,472.41,917.582,490.699z"/>
			
				<linearGradient id="SVGID_00000057122361004558897500000018226615199475844771_" gradientUnits="userSpaceOnUse" x1="591.332" y1="232.8635" x2="603.8447" y2="479.9882">
				<stop  offset="0" style="stop-color:#551dbf"/>
				<stop  offset="1" style="stop-color:#551dbf"/>
			</linearGradient>
			<path style="fill:url(#SVGID_00000057122361004558897500000018226615199475844771_);" d="M748.473,296.796
				c-88.814,21.638-155.488,97.443-246.847,107.164c-85.688,9.118-174.946-42.785-255.211-14.208
				c-19.712,7.018-36.399,18.393-49.951,32.571c82.413,10.865,157.732,47.37,233.474,78.913
				c77.806,32.403,162.664,60.571,247.496,49.355c81.864-10.823,151.76-56.57,221.349-96.828
				c33.251-19.236,68.707-37.771,105.619-50.877C951.203,324.669,846.049,273.023,748.473,296.796z"/>
			
				<linearGradient id="SVGID_00000042703942785717604170000015403509432086475682_" gradientUnits="userSpaceOnUse" x1="596.2073" y1="587.2115" x2="589.9569" y2="324.6907">
				<stop  offset="0" style="stop-color:#551dbf"/>
				<stop  offset="1" style="stop-color:#551dbf"/>
			</linearGradient>
			<path style="fill:url(#SVGID_00000042703942785717604170000015403509432086475682_);" d="M677.434,550.591
				c-84.832,11.216-169.69-16.952-247.496-49.355c-75.742-31.543-151.061-68.048-233.474-78.913
				c-29.416,30.775-44.026,74.783-42.508,116.284c0.85,23.248,5.933,45.045,13.159,66.246c63.125-10.107,128.654-8.102,190.555,6.99
				c97.183,23.694,192.694,78.099,290.864,57.965c54.975-11.275,100.787-44.774,141.368-79.982
				c40.58-35.207,78.914-73.669,127.68-99.127c35.033-18.289,77.419-28.809,116.857-24.267
				c-3.226-10.591-7.112-21.051-11.789-31.318c-5.073-11.137-11.227-21.904-18.249-32.228
				c-36.912,13.105-72.368,31.641-105.619,50.877C829.194,494.021,759.298,539.768,677.434,550.591z"/>
		</g>
	</g>
</g>
</svg>
