<?xml version="1.0" encoding="utf-8"?>
<!-- Generator: Adobe Illustrator 27.5.0, SVG Export Plug-In . SVG Version: 6.00 Build 0)  -->
<svg version="1.1" id="Background" xmlns="http://www.w3.org/2000/svg" xmlns:xlink="http://www.w3.org/1999/xlink" x="0px" y="0px"
	 viewBox="0 0 750 500" style="enable-background:new 0 0 750 500;" xml:space="preserve">
<g id="XMLID_810_">
	<path id="XMLID_396_" style="clip-path:url(#XMLID_00000121247344418335329720000003568836417166658480_);fill:#8645ff;" d="
		M251.272,440.099c49.66-10.315,101.765-7.15,149.549,8.409c124.92,40.674,231.755-15.234,259.547-49.943
		c32.26-40.331,39.679-92.98,27.775-140.875c-11.905-47.896-41.618-91.403-77.878-129.122
		c-28.356-29.47-61.824-56.442-102.667-71.501c-39.904-14.712-84.251-17.186-127.629-18.718
		c-55.789-1.973-112.598-2.634-166.406,10.24c-43.876,10.485-89.606,35.66-95.161,74.596c-4.725,33.19,21.611,65.487,16.231,98.604
		c-7.543,46.374-70.826,70.06-93.324,112.698c-26.25,49.72,1.727,103.824,42.844,115
		C127.017,461.137,196.236,451.53,251.272,440.099z"/>
</g>
</svg>
